<?xml version="1.0" encoding="UTF-8" standalone="no"?>
<!-- Created with Inkscape (http://www.inkscape.org/) -->

<svg
   xmlns:dc="http://purl.org/dc/elements/1.1/"
   xmlns:cc="http://creativecommons.org/ns#"
   xmlns:rdf="http://www.w3.org/1999/02/22-rdf-syntax-ns#"
   xmlns:svg="http://www.w3.org/2000/svg"
   xmlns="http://www.w3.org/2000/svg"
   xmlns:sodipodi="http://sodipodi.sourceforge.net/DTD/sodipodi-0.dtd"
   xmlns:inkscape="http://www.inkscape.org/namespaces/inkscape"
   id="svg2"
   sodipodi:docname="nicubunu-RPG-map-symbols-mountains-3.svg"
   inkscape:export-filename="/home/nicu/Desktop/rpg_color.png"
   viewBox="0 0 128 128"
   sodipodi:version="0.32"
   inkscape:export-xdpi="90.000000"
   inkscape:export-ydpi="90.000000"
   inkscape:version="0.48.4 r9939"
   version="1.1"
   width="100%"
   height="100%">
  <defs
     id="defs13" />
  <sodipodi:namedview
     id="base"
     bordercolor="#666666"
     inkscape:pageshadow="2"
     inkscape:window-y="24"
     pagecolor="#ffffff"
     inkscape:window-height="1056"
     inkscape:zoom="2.8284271"
     inkscape:window-x="65"
     borderopacity="1.0"
     inkscape:current-layer="layer1"
     inkscape:cx="39.242718"
     inkscape:cy="62.494745"
     inkscape:window-width="1855"
     inkscape:pageopacity="0.0"
     inkscape:document-units="px"
     showgrid="false"
     inkscape:window-maximized="1" />
  <g
     id="layer1"
     inkscape:label="Layer 1"
     inkscape:groupmode="layer">
    <path
       inkscape:connector-curvature="0"
       d="m 53.320777,28.372915 c -0.148182,1.696684 -2.4697,4.141687 -3.531671,6.270568 -0.815001,1.64976 -0.815001,3.581065 -1.506517,5.265401 -0.864395,2.190624 -1.876972,4.647975 -3.506974,6.268098 -1.506517,1.521336 -2.321518,3.677384 -2.741367,5.76675 -0.419849,2.037502 -2.4697,3.153807 -4.272581,2.257306 -1.370684,-0.684107 -4.949279,0.422318 -6.268099,0.753258 -0.590258,0.145712 -1.170637,0.33341 -1.755956,0.501349 -0.669289,0.190167 -2.361034,4.470157 -2.758655,5.265401 -1.195335,2.390669 -2.630231,4.759112 -3.761353,7.021357 -0.674228,1.348456 0.116076,3.050079 -0.24944,4.512142 -0.735971,2.946352 -2.615412,5.480264 -4.013263,8.275964 -1.138531,2.279533 -3.410655,3.311868 -4.512141,5.51731 -1.049623,2.096775 -1.918957,2.726549 -3.260004,4.512142 -3.5810654,4.77393 2.368442,2.119003 5.2654,5.015961 2.002927,2.002926 5.909992,3.504504 7.772146,2.758655 1.805351,-0.721153 5.480264,-1.002699 7.522706,-1.002699 5.10734,0 11.328514,0.229683 15.798671,-2.257305 2.617882,-1.459593 4.519551,-2.262246 6.520008,-4.262703 1.432426,-1.439835 4.717127,-2.96364 5.754401,-4.013262 0.642122,-0.634713 3.334095,-4.902355 4.593642,-4.27752 1.136062,0.565561 4.890006,0.716213 6.100159,1.017516 0.839698,0.212394 0.444546,3.845323 1.111365,4.514612 1.086668,1.086668 0.716213,2.114063 2.000457,2.758654 2.074548,1.042214 5.779098,1.019987 7.532585,2.758655 2.420306,2.430185 1.852275,-0.251909 4.741824,-0.251909 4.025611,0 10.273952,-0.08891 13.805623,-1.504047 3.087127,-1.23732 5.779097,-1.447244 9.014407,-2.257306 2.12394,-0.526046 5.18637,-1.333638 4.51955,-4.010793 -0.41985,-1.691744 -6.49531,-6.559523 -7.75486,-7.799312 -2.09924,-2.109124 -4.17379,-1.956003 -5.28516,-4.739355 -0.12348,-0.348227 -0.321058,-0.669288 -0.493937,-1.002698 -1.061971,-2.128881 -1.284244,-4.643036 -1.753487,-7.021357 -1.037274,-5.211067 -4.371369,-9.38239 -7.779555,-12.788107 -0.642122,-0.649531 -5.532128,6.831191 -5.779098,7.270797 -1.457123,2.63764 -2.543791,0.372925 -3.506974,-2.005396 -0.938486,-2.346215 -2.198033,-4.623279 -4.568945,-5.803795 -5.211067,-2.612943 -2.96364,-0.738441 -5.211067,-5.228355 -1.555911,-3.124171 -2.000457,-5.59881 -5.260461,-7.774616 -2.593185,-1.733729 -3.877429,-4.386187 -6.026068,-6.520008 -2.568488,-2.588245 -2.790761,-3.29458 -6.495311,-3.761353 z"
       style="fill:#95b6ff;fill-rule:evenodd;fill-opacity:1"
       sodipodi:nodetypes="ccccccccccccccccccccccccccccccccccccccccc"
       id="path2174" />
    <path
       inkscape:connector-curvature="0"
       d="m 33.498965,56.206434 c -0.879213,-0.106197 -3.314338,0.982941 -5.015961,2.257306 -1.755957,1.31882 -3.077246,4.297278 -4.512142,6.018659 -1.15335,1.385501 -0.913789,5.322203 -1.254607,7.021357 -0.397622,1.985639 -0.849577,3.203201 -1.755957,5.013491 -1.23485,2.47217 -2.319048,4.013262 -4.010793,6.270568 -1.689275,2.252367 -3.588474,4.03302 -5.2654,6.268099 -0.99282,1.323759 -2.7018521,2.575897 -2.7018521,3.222958 0,0.689047 8.0882671,4.294809 8.7205111,4.801097 1.901669,1.523805 7.907979,1.686805 9.276193,1.002698 1.291653,-0.644591 2.380791,-6.591629 3.462519,-8.39451 0.693986,-1.15582 1.948594,-4.838142 2.30423,-6.149553 0.449486,-1.639881 -0.501349,-2.988337 -0.501349,-4.512142 0,-2.541321 -1.368214,-4.559066 -0.750789,-7.021357 0.861926,-3.447701 1.40526,-7.125084 2.257306,-10.530801 0.365516,-1.469471 0.25191,-4.010793 -0.251909,-5.26787 z"
       style="fill:#afc7ff;fill-rule:evenodd;fill-opacity:1"
       sodipodi:nodetypes="cccccccccccccccc"
       id="path2176" />
    <path
       inkscape:connector-curvature="0"
       d="m 56.556084,28.372915 v 0 c 0,-5.92481 1.506517,6.613857 1.506517,9.029223 0,1.276835 -0.691516,3.059959 -0.98788,4.262702 -0.444546,1.713972 -1.852275,3.393368 -2.519094,5.013491 -0.74091,1.859685 -0.98788,3.260004 -0.98788,5.51731 0,2.282003 0.49394,4.050308 0.49394,6.268099 0,2.151109 1.012577,7.683237 1.012577,9.528102 0,1.990579 -0.790304,3.62799 -2.272124,3.260004 -1.506517,-0.380333 -3.260004,-0.943425 -4.519551,-1.252137 -1.630002,-0.409971 -2.938943,-1.518866 -4.247884,-2.509216 -1.037274,-0.765607 -1.531214,-3.413125 -1.753487,-4.512142 -0.04939,-0.165469 0,-0.335879 0,-0.501349 0,-2.766064 -1.531214,-4.68749 -0.518637,-7.774615 0.815001,-2.39067 1.926366,-4.593642 3.013034,-6.769448 1.704093,-3.37114 3.605762,-6.332311 4.519551,-10.029452 0.07409,-0.335879 0.172879,-0.669288 0.24697,-1.005168 0.864395,-3.405716 1.97576,-6.685477 4.766521,-8.774844 0.617425,-0.454424 1.506517,0.125955 2.247427,0.24944 z"
       style="fill:#afc7ff;fill-rule:evenodd;fill-opacity:1"
       sodipodi:nodetypes="ccccccccccccccccccc"
       id="path2178" />
    <path
       inkscape:connector-curvature="0"
       d="m 86.661727,62.225093 c 0.321061,0.335879 0.666819,0.669289 0.98788,1.002698 0.864395,0.844638 0.518637,3.615641 0.518637,4.764051 v 5.015961 c 0,1.825108 0.197576,3.205671 -0.24697,5.015961 -0.518637,2.032563 -2.247427,3.724308 -2.766064,5.766749 -0.543334,2.133821 -0.49394,3.235307 -1.506517,5.265401 -0.592728,1.180516 -0.49394,2.657397 -0.49394,4.013262 0,2.22767 -0.98788,1.634942 -3.260004,0.501349 -1.97576,-0.98541 -5.383946,-1.14594 -6.841069,-2.590715 -1.531214,-1.541093 -1.72879,-1.076789 -1.72879,-3.642807 0,-1.951063 2.667276,-4.875188 3.037731,-6.806494 0.469243,-2.323987 1.901669,-5.440749 3.260004,-7.270796 2.370912,-3.153807 3.432883,-6.710175 6.520008,-9.029224 1.407729,-1.049622 1.160759,-0.32353 2.519094,-2.005396 z"
       style="fill:#afc7ff;fill-rule:evenodd;fill-opacity:1"
       sodipodi:nodetypes="ccccccccccccccc"
       id="path2180" />
    <path
       inkscape:connector-curvature="0"
       d="m 55.247143,24.937562 c -2.049851,0 -5.43334,3.744066 -6.495311,7.100388 -0.765607,2.501806 -1.506517,4.19355 -4.321975,10.419664 -0.568031,1.299062 -1.654699,3.163686 -2.395609,4.089823 -0.74091,0.928608 -1.555911,2.669746 -1.753487,3.936702 -0.222273,1.266956 -0.543334,2.580837 -0.716213,2.854973 C 39.416366,53.613249 37.49,53.232915 35.331482,52.492005 l -3.936702,-1.390441 -1.620123,1.620123 c -2.272124,2.183215 -5.653143,6.527417 -6.868235,8.952663 -1.353396,2.699382 -2.766065,8.987238 -2.625292,11.501393 0.09632,1.691744 -0.711273,2.864852 -5.01596,7.100387 -5.011022,4.929521 -7.0238271,7.935146 -7.0238271,10.725907 0,2.538852 1.0298649,1.709033 6.7916751,-5.401233 1.654699,-2.039973 3.195792,-3.813217 3.472398,-3.936702 0.279076,-0.123485 0.540864,-0.513698 0.540864,-0.926138 0,-0.41244 0.800183,-1.607774 1.775715,-2.622821 1.442304,-1.506517 1.837456,-2.778413 2.237548,-6.791675 0.634713,-6.344659 2.336336,-9.975118 5.403703,-11.501393 1.296593,-0.644592 2.731489,-1.64976 3.163686,-2.237548 1.017517,-1.383032 0.558152,3.215549 -0.849577,8.335237 -1.274365,4.640567 -1.296592,6.991721 -0.232151,12.3485 0.773016,3.877429 0.745849,4.85543 -0.229682,7.717813 -1.331169,3.904595 -1.469472,5.932219 -0.308713,5.556825 1.101486,-0.358107 3.055019,-6.245872 3.087125,-9.261375 0.01235,-1.299062 -0.306243,-4.025611 -0.773016,-6.018659 -0.760668,-3.255065 -0.691516,-4.484975 0.849577,-12.271939 1.390441,-7.021358 1.933775,-8.720511 2.854973,-8.720511 1.39538,-0.0049 2.279533,1.294123 2.007866,2.931534 -0.222273,1.370683 1.111365,3.284701 1.926366,2.778412 0.592728,-0.365515 2.000457,3.29705 2.000457,5.171552 0,1.585547 3.037731,3.618111 6.791675,4.630687 3.506974,0.940956 5.877886,2.506746 9.8788,6.327372 2.000457,1.89426 3.136519,2.494397 3.630459,2.007866 0.49394,-0.489001 -0.321061,-1.637411 -2.617882,-3.860141 -4.321975,-4.193551 -6.470614,-5.569174 -10.644407,-6.791675 -3.976217,-1.15582 -4.643036,-1.825108 -5.334552,-5.092522 -0.271667,-1.299062 -0.790304,-2.716669 -1.160759,-3.163685 -1.259547,-1.56579 -0.09879,-7.381933 2.000457,-10.110952 1.111365,-1.412668 2.370912,-3.963869 2.864852,-5.633386 0.49394,-1.669517 1.358335,-3.590943 1.852275,-4.321975 0.49394,-0.733501 0.839698,-1.951063 0.839698,-2.701852 0.0247,-2.620351 1.383032,-6.260689 3.013034,-8.026524 2.049851,-2.202973 2.272124,-2.200503 1.852275,-0.07656 -0.222273,1.222501 0,1.696684 0.790304,1.696684 1.72879,0 1.160759,9.765193 -0.716213,12.42506 -1.555911,2.217791 -2.617882,5.053007 -2.296821,6.09769 0.09879,0.370455 0.370455,3.12417 0.617425,6.17425 0.345758,4.331853 0.691516,5.445688 1.383032,5.01596 0.963183,-0.600137 1.160759,-6.09028 0.395152,-10.417194 -0.345758,-1.842396 -0.197576,-2.877201 0.518637,-3.70455 1.901669,-2.119003 3.21061,-6.327372 3.260004,-10.496225 0.0247,-2.274594 0.197576,-3.70702 0.370455,-3.242716 0.197576,0.464303 0.666819,0.773016 1.012577,0.773016 1.704093,0 6.989251,6.618796 9.804709,12.192909 0.98788,1.963411 2.840155,3.973747 5.235764,5.712416 2.049851,1.47935 4.247884,3.637868 4.865309,4.783809 1.086668,2.015275 1.037274,2.153578 -0.691516,5.094991 -0.98788,1.669517 -1.778184,3.558837 -1.778184,4.166384 0,1.252138 -4.840612,11.308756 -6.865766,14.200775 -1.012577,1.464532 -1.259547,2.580836 -1.012577,4.9394 0.642122,5.650673 3.284701,5.055476 4.099702,-0.926138 0.518637,-3.711959 3.828035,-10.733316 6.026068,-12.810334 0.839698,-0.802652 2.4697,-2.326457 3.630459,-3.395837 l 2.074548,-1.931306 0.839698,3.087125 c 1.580608,5.984084 1.555911,6.608918 0.172879,8.56739 -2.074548,2.896958 -3.482277,6.638553 -2.864852,7.641251 0.74091,1.190396 2.691973,-0.311182 2.691973,-2.084426 0,-0.679168 0.790304,-2.338806 1.704093,-3.70455 1.97576,-2.904368 2.000457,-3.847793 0.617425,-9.184815 -0.839698,-3.250125 -0.889092,-4.452869 -0.222273,-6.636084 0.444546,-1.47688 1.061971,-2.701851 1.383032,-2.701851 0.321061,0 0.543334,-0.570501 0.543334,-1.311411 0,-1.558381 0.09879,-1.56826 2.395609,-0.693986 1.383032,0.528516 1.704093,1.059502 1.704093,2.931534 0,1.276835 0.148182,2.808049 0.370455,3.395838 0.74091,1.901669 1.630002,1.14841 1.630002,-1.387972 0,-3.778641 0.518637,-2.4697 0.98788,2.622822 0.592728,6.275507 0.815001,6.784266 5.408642,10.264073 6.44592,4.872718 7.11274,5.633386 8.71804,10.651816 0.44455,1.341047 2.42031,1.671987 2.39561,0.385273 -0.0247,-1.425017 -2.64258,-6.858357 -3.85273,-7.949964 -0.64212,-0.565561 -2.93894,-2.375851 -5.08758,-4.013263 -4.66774,-3.551428 -4.9641,-3.983626 -5.556828,-9.182344 -0.444546,-3.783581 -1.111365,-5.334552 -5.013491,-11.11365 -0.642122,-0.936016 -1.407729,-2.274594 -1.630002,-3.010564 -0.222273,-0.735971 -1.037274,-1.802881 -1.852275,-2.316579 -1.358335,-0.839698 -1.605305,-0.758198 -2.543791,0.617425 -1.679396,2.447473 -4.593642,5.403704 -5.334552,5.403704 -0.370455,0 -1.259547,-0.894032 -1.926366,-2.007867 -0.666819,-1.113834 -1.753487,-2.188154 -2.395609,-2.390669 -1.580608,-0.503819 -7.260918,-6.016189 -7.260918,-7.023827 0,-1.617653 -6.66819,-10.632058 -9.705921,-13.121516 -1.72879,-1.407729 -3.605762,-3.469929 -4.173793,-4.551657 -0.666819,-1.304002 -1.531214,-1.931306 -2.543791,-1.931306 z"
       style="fill:#4ea4b8;fill-opacity:1"
       id="path1719" />
  </g>
  <metadata
     id="metadata11">
    <rdf:RDF>
      <cc:Work>
        <dc:format>image/svg+xml</dc:format>
        <dc:type
           rdf:resource="http://purl.org/dc/dcmitype/StillImage" />
        <cc:license
           rdf:resource="http://creativecommons.org/licenses/publicdomain/" />
        <dc:publisher>
          <cc:Agent
             rdf:about="http://openclipart.org/">
            <dc:title>Openclipart</dc:title>
          </cc:Agent>
        </dc:publisher>
        <dc:title></dc:title>
        <dc:date>2007-12-07T09:04:55</dc:date>
        <dc:description>Part of the fantasy RPG map elements collection: mountains</dc:description>
        <dc:source>https://openclipart.org/detail/9454/rpg-map-symbols:-mountains-by-nicubunu-9454</dc:source>
        <dc:creator>
          <cc:Agent>
            <dc:title>nicubunu</dc:title>
          </cc:Agent>
        </dc:creator>
        <dc:subject>
          <rdf:Bag>
            <rdf:li>cartography</rdf:li>
            <rdf:li>fantasy</rdf:li>
            <rdf:li>geography</rdf:li>
            <rdf:li>land</rdf:li>
            <rdf:li>map</rdf:li>
            <rdf:li>mountain</rdf:li>
            <rdf:li>rock</rdf:li>
            <rdf:li>rocks</rdf:li>
          </rdf:Bag>
        </dc:subject>
      </cc:Work>
      <cc:License
         rdf:about="http://creativecommons.org/licenses/publicdomain/">
        <cc:permits
           rdf:resource="http://creativecommons.org/ns#Reproduction" />
        <cc:permits
           rdf:resource="http://creativecommons.org/ns#Distribution" />
        <cc:permits
           rdf:resource="http://creativecommons.org/ns#DerivativeWorks" />
      </cc:License>
    </rdf:RDF>
  </metadata>
</svg>
